<?xml version="1.0" standalone="no"?>
<svg viewBox="0 0 200 200" xmlns="http://www.w3.org/2000/svg">
  <path fill="#DCED31" d="M29.9,-53.4C38,-47.1,43.3,-37.6,49,-28.2C54.6,-18.7,60.7,-9.4,59.3,-0.8C57.9,7.8,49.1,15.5,46.1,29.5C43,43.5,45.7,63.6,39,65.9C32.2,68.1,16.1,52.5,0.3,52C-15.6,51.6,-31.2,66.4,-41.6,66.2C-52,66.1,-57.1,51,-57.6,37.5C-58.1,23.9,-54.1,12,-52.2,1.1C-50.2,-9.7,-50.3,-19.4,-48.5,-30.7C-46.6,-41.9,-42.8,-54.8,-34.4,-60.9C-26,-67,-13,-66.3,-1,-64.5C10.9,-62.7,21.8,-59.7,29.9,-53.4Z" transform="translate(100 100)" />
</svg>
